{"title":"Pagli Toke Rakhbo Boro Adore [720p] - Idiot (2012)-[Tuklu]","uid":7808412,"size":186476744,"categoryP":"video","categoryS":"music_videos","magnet":"?xt=urn:btih:b363548a56520f0909ccd19df3c8fb71b28d9c4b&amp;dn=Pagli+Toke+Rakhbo+Boro+Adore+%5B720p%5D+-+Idiot+%282012%29-%5BTuklu%5D&amp;tr=udp%3A%2F%2Ftracker.openbittorrent.com%3A80&amp;tr=udp%3A%2F%2Fopen.demonii.com%3A1337&amp;tr=udp%3A%2F%2Ftracker.coppersurfer.tk%3A6969&amp;tr=udp%3A%2F%2Fexodus.desync.com%3A6969","seeders":1,"leechers":0,"uploader":"Tuklu","files":1,"time":1352462206,"description":"Pagli Toke Rakhbo Boro Adore [720p] - Idiot (2012)\n\n\n\nInfo :\n\nSong Name: Pagli Toke Rakhbo Boro Adore\nMovie Name: Idiot (2012)\nFormat: mkv\nFile size: 178 MB\nDuration: 00:03:51.51\nAudio language: Bengali\n\nVideo info:\n===========\nDuration: 00:03:51.51, start: 0.000000, bitrate: 448 kb/s\nStream #0.0(eng): Video: h264, yuv420p, 1280x544 [PAR 1:1 DAR 40:17], 24 fps, 24 tbr, 1k tbn, 48 tbc\nStream #0.1: Audio: ac3, 44100 Hz, stereo, s16, 448 kb/s\n\nEnjoy ...\n\nTorrent Create &amp; Uploaded by Tuklu.\n","torrent":{"xt":"urn:btih:b363548a56520f0909ccd19df3c8fb71b28d9c4b","amp;dn":"Pagli+Toke+Rakhbo+Boro+Adore+%5B720p%5D+-+Idiot+%282012%29-%5BTuklu%5D","amp;tr":["udp%3A%2F%2Ftracker.openbittorrent.com%3A80","udp%3A%2F%2Fopen.demonii.com%3A1337","udp%3A%2F%2Ftracker.coppersurfer.tk%3A6969","udp%3A%2F%2Fexodus.desync.com%3A6969"],"infoHash":"b363548a56520f0909ccd19df3c8fb71b28d9c4b","infoHashBuffer":{"type":"Buffer","data":[179,99,84,138,86,82,15,9,9,204,209,157,243,200,251,113,178,141,156,75]},"announce":[],"urlList":[]}}